<svg xmlns="http://www.w3.org/2000/svg" xmlns:xlink="http://www.w3.org/1999/xlink" width="500" zoomAndPan="magnify" viewBox="0 0 375 374.999991" height="500" preserveAspectRatio="xMidYMid meet" version="1.0"><defs><clipPath id="5186486bac"><path d="M 133 70.398438 L 289 70.398438 L 289 262 L 133 262 Z M 133 70.398438 " clip-rule="nonzero"/></clipPath><clipPath id="18bb491381"><path d="M 86.058594 113 L 242 113 L 242 304.398438 L 86.058594 304.398438 Z M 86.058594 113 " clip-rule="nonzero"/></clipPath></defs><g clip-path="url(#5186486bac)"><path fill="#50a8db" d="M 163.894531 115.484375 L 187.496094 101.851562 L 288.898438 160.398438 L 288.898438 128.949219 L 187.496094 70.398438 L 133.949219 101.320312 L 133.949219 134.113281 L 261.660156 207.832031 L 261.660156 261.773438 L 288.898438 246.046875 L 288.898438 187.664062 Z M 163.894531 115.484375 " fill-opacity="1" fill-rule="nonzero"/></g><g clip-path="url(#18bb491381)"><path fill="#50a8db" d="M 211.101562 259.511719 L 187.496094 273.144531 L 86.097656 214.59375 L 86.097656 246.046875 L 187.496094 304.597656 L 241.046875 273.671875 L 241.046875 240.878906 L 113.332031 167.160156 L 113.332031 113.21875 L 86.097656 128.949219 L 86.097656 187.328125 Z M 211.101562 259.511719 " fill-opacity="1" fill-rule="nonzero"/></g></svg>